<svg width="151" height="102" viewBox="0 0 151 102" fill="none" xmlns="http://www.w3.org/2000/svg">
<rect x="2.5" y="29.5" width="13" height="13" rx="0.5" fill="#EFF1F5" stroke="#4C4F69"/>
<circle cx="7.5" cy="31.5" r="0.5" fill="#4C4F69"/>
<circle cx="12.5" cy="34.5" r="0.5" fill="#4C4F69"/>
<circle cx="9" cy="36" r="1" fill="#4C4F69"/>
<rect x="21.5" y="29.5" width="13" height="13" rx="0.5" fill="#EFF1F5" stroke="#4C4F69"/>
<circle cx="26.5" cy="31.5" r="0.5" fill="#4C4F69"/>
<circle cx="31.5" cy="34.5" r="0.5" fill="#4C4F69"/>
<circle cx="28" cy="36" r="1" fill="#4C4F69"/>
<rect x="40.5" y="29.5" width="13" height="13" rx="0.5" fill="#EFF1F5" stroke="#4C4F69"/>
<circle cx="45.5" cy="31.5" r="0.5" fill="#4C4F69"/>
<circle cx="50.5" cy="34.5" r="0.5" fill="#4C4F69"/>
<circle cx="47" cy="36" r="1" fill="#4C4F69"/>
<rect x="59.5" y="29.5" width="13" height="13" rx="0.5" fill="#EFF1F5" stroke="#4C4F69"/>
<circle cx="64.5" cy="31.5" r="0.5" fill="#4C4F69"/>
<circle cx="69.5" cy="34.5" r="0.5" fill="#4C4F69"/>
<circle cx="66" cy="36" r="1" fill="#4C4F69"/>
<rect x="2.5" y="48.5" width="13" height="13" rx="0.5" fill="#EFF1F5" stroke="#4C4F69"/>
<circle cx="7.5" cy="50.5" r="0.5" fill="#4C4F69"/>
<circle cx="12.5" cy="53.5" r="0.5" fill="#4C4F69"/>
<circle cx="9" cy="55" r="1" fill="#4C4F69"/>
<rect x="21.5" y="48.5" width="13" height="13" rx="0.5" fill="#EFF1F5" stroke="#4C4F69"/>
<circle cx="26.5" cy="50.5" r="0.5" fill="#4C4F69"/>
<circle cx="31.5" cy="53.5" r="0.5" fill="#4C4F69"/>
<circle cx="28" cy="55" r="1" fill="#4C4F69"/>
<rect x="40.5" y="48.5" width="13" height="13" rx="0.5" fill="#EFF1F5" stroke="#4C4F69"/>
<circle cx="45.5" cy="50.5" r="0.5" fill="#4C4F69"/>
<circle cx="50.5" cy="53.5" r="0.5" fill="#4C4F69"/>
<circle cx="47" cy="55" r="1" fill="#4C4F69"/>
<rect x="59.5" y="48.5" width="13" height="13" rx="0.5" fill="#EFF1F5" stroke="#4C4F69"/>
<circle cx="64.5" cy="50.5" r="0.5" fill="#4C4F69"/>
<circle cx="69.5" cy="53.5" r="0.5" fill="#4C4F69"/>
<circle cx="66" cy="55" r="1" fill="#4C4F69"/>
<rect x="2.5" y="67.5" width="13" height="13" rx="0.5" fill="#EFF1F5" stroke="#4C4F69"/>
<circle cx="7.5" cy="69.5" r="0.5" fill="#4C4F69"/>
<circle cx="12.5" cy="72.5" r="0.5" fill="#4C4F69"/>
<circle cx="9" cy="74" r="1" fill="#4C4F69"/>
<rect x="21.5" y="67.5" width="13" height="13" rx="0.5" fill="#EFF1F5" stroke="#4C4F69"/>
<circle cx="26.5" cy="69.5" r="0.5" fill="#4C4F69"/>
<circle cx="31.5" cy="72.5" r="0.5" fill="#4C4F69"/>
<circle cx="28" cy="74" r="1" fill="#4C4F69"/>
<rect x="40.5" y="67.5" width="13" height="13" rx="0.5" fill="#EFF1F5" stroke="#4C4F69"/>
<circle cx="45.5" cy="69.5" r="0.5" fill="#4C4F69"/>
<circle cx="50.5" cy="72.5" r="0.5" fill="#4C4F69"/>
<circle cx="47" cy="74" r="1" fill="#4C4F69"/>
<rect x="59.5" y="67.5" width="13" height="13" rx="0.5" fill="#EFF1F5" stroke="#4C4F69"/>
<circle cx="64.5" cy="69.5" r="0.5" fill="#4C4F69"/>
<circle cx="69.5" cy="72.5" r="0.5" fill="#4C4F69"/>
<circle cx="66" cy="74" r="1" fill="#4C4F69"/>
<rect x="2.5" y="86.5" width="13" height="13" rx="0.5" fill="#EFF1F5" stroke="#4C4F69"/>
<circle cx="7.5" cy="88.5" r="0.5" fill="#4C4F69"/>
<circle cx="12.5" cy="91.5" r="0.5" fill="#4C4F69"/>
<circle cx="9" cy="93" r="1" fill="#4C4F69"/>
<rect x="21.5" y="86.5" width="13" height="13" rx="0.5" fill="#EFF1F5" stroke="#4C4F69"/>
<circle cx="26.5" cy="88.5" r="0.5" fill="#4C4F69"/>
<circle cx="31.5" cy="91.5" r="0.5" fill="#4C4F69"/>
<circle cx="28" cy="93" r="1" fill="#4C4F69"/>
<rect x="40.5" y="86.5" width="13" height="13" rx="0.5" fill="#EFF1F5" stroke="#4C4F69"/>
<circle cx="45.5" cy="88.5" r="0.5" fill="#4C4F69"/>
<circle cx="50.5" cy="91.5" r="0.5" fill="#4C4F69"/>
<circle cx="47" cy="93" r="1" fill="#4C4F69"/>
<rect x="59.5" y="86.5" width="13" height="13" rx="0.5" fill="#EFF1F5" stroke="#4C4F69"/>
<circle cx="64.5" cy="88.5" r="0.5" fill="#4C4F69"/>
<circle cx="69.5" cy="91.5" r="0.5" fill="#4C4F69"/>
<circle cx="66" cy="93" r="1" fill="#4C4F69"/>
<rect x="78.5" y="29.5" width="13" height="13" rx="0.5" fill="#EFF1F5" stroke="#4C4F69"/>
<circle cx="83.5" cy="31.5" r="0.5" fill="#4C4F69"/>
<circle cx="88.5" cy="34.5" r="0.5" fill="#4C4F69"/>
<circle cx="85" cy="36" r="1" fill="#4C4F69"/>
<rect x="97.5" y="29.5" width="13" height="13" rx="0.5" fill="#EFF1F5" stroke="#4C4F69"/>
<circle cx="102.5" cy="31.5" r="0.5" fill="#4C4F69"/>
<circle cx="107.5" cy="34.5" r="0.5" fill="#4C4F69"/>
<circle cx="104" cy="36" r="1" fill="#4C4F69"/>
<rect x="116.5" y="29.5" width="13" height="13" rx="0.5" fill="#EFF1F5" stroke="#4C4F69"/>
<circle cx="121.5" cy="31.5" r="0.5" fill="#4C4F69"/>
<circle cx="126.5" cy="34.5" r="0.5" fill="#4C4F69"/>
<circle cx="123" cy="36" r="1" fill="#4C4F69"/>
<rect x="135.5" y="29.5" width="13" height="13" rx="0.5" fill="#EFF1F5" stroke="#4C4F69"/>
<circle cx="140.5" cy="31.5" r="0.5" fill="#4C4F69"/>
<circle cx="145.5" cy="34.5" r="0.5" fill="#4C4F69"/>
<circle cx="142" cy="36" r="1" fill="#4C4F69"/>
<rect x="78.5" y="48.5" width="13" height="13" rx="0.5" fill="#EFF1F5" stroke="#4C4F69"/>
<circle cx="83.5" cy="50.5" r="0.5" fill="#4C4F69"/>
<circle cx="88.5" cy="53.5" r="0.5" fill="#4C4F69"/>
<circle cx="85" cy="55" r="1" fill="#4C4F69"/>
<rect x="97.5" y="48.5" width="13" height="13" rx="0.5" fill="#EFF1F5" stroke="#4C4F69"/>
<circle cx="102.5" cy="50.5" r="0.5" fill="#4C4F69"/>
<circle cx="107.5" cy="53.5" r="0.5" fill="#4C4F69"/>
<circle cx="104" cy="55" r="1" fill="#4C4F69"/>
<rect x="116.5" y="48.5" width="13" height="13" rx="0.5" fill="#EFF1F5" stroke="#4C4F69"/>
<circle cx="121.5" cy="50.5" r="0.5" fill="#4C4F69"/>
<circle cx="126.5" cy="53.5" r="0.5" fill="#4C4F69"/>
<circle cx="123" cy="55" r="1" fill="#4C4F69"/>
<rect x="135.5" y="48.5" width="13" height="13" rx="0.5" fill="#EFF1F5" stroke="#4C4F69"/>
<circle cx="140.5" cy="50.5" r="0.5" fill="#4C4F69"/>
<circle cx="145.5" cy="53.5" r="0.5" fill="#4C4F69"/>
<circle cx="142" cy="55" r="1" fill="#4C4F69"/>
<rect x="78.5" y="67.5" width="13" height="13" rx="0.5" fill="#EFF1F5" stroke="#4C4F69"/>
<circle cx="83.5" cy="69.5" r="0.5" fill="#4C4F69"/>
<circle cx="88.5" cy="72.5" r="0.5" fill="#4C4F69"/>
<circle cx="85" cy="74" r="1" fill="#4C4F69"/>
<rect x="97.5" y="67.5" width="13" height="13" rx="0.5" fill="#EFF1F5" stroke="#4C4F69"/>
<circle cx="102.5" cy="69.5" r="0.5" fill="#4C4F69"/>
<circle cx="107.5" cy="72.5" r="0.5" fill="#4C4F69"/>
<circle cx="104" cy="74" r="1" fill="#4C4F69"/>
<rect x="116.5" y="67.5" width="13" height="13" rx="0.5" fill="#EFF1F5" stroke="#4C4F69"/>
<circle cx="121.5" cy="69.5" r="0.5" fill="#4C4F69"/>
<circle cx="126.5" cy="72.5" r="0.5" fill="#4C4F69"/>
<circle cx="123" cy="74" r="1" fill="#4C4F69"/>
<rect x="135.5" y="67.5" width="13" height="13" rx="0.5" fill="#EFF1F5" stroke="#4C4F69"/>
<circle cx="140.5" cy="69.5" r="0.5" fill="#4C4F69"/>
<circle cx="145.5" cy="72.5" r="0.5" fill="#4C4F69"/>
<circle cx="142" cy="74" r="1" fill="#4C4F69"/>
<rect x="78.5" y="86.5" width="13" height="13" rx="0.5" fill="#EFF1F5" stroke="#4C4F69"/>
<circle cx="83.5" cy="88.5" r="0.5" fill="#4C4F69"/>
<circle cx="88.5" cy="91.5" r="0.5" fill="#4C4F69"/>
<circle cx="85" cy="93" r="1" fill="#4C4F69"/>
<rect x="97.5" y="86.5" width="13" height="13" rx="0.5" fill="#EFF1F5" stroke="#4C4F69"/>
<circle cx="102.5" cy="88.5" r="0.5" fill="#4C4F69"/>
<circle cx="107.5" cy="91.5" r="0.5" fill="#4C4F69"/>
<circle cx="104" cy="93" r="1" fill="#4C4F69"/>
<rect x="116.5" y="86.5" width="13" height="13" rx="0.5" fill="#EFF1F5" stroke="#4C4F69"/>
<circle cx="121.5" cy="88.5" r="0.5" fill="#4C4F69"/>
<circle cx="126.5" cy="91.5" r="0.5" fill="#4C4F69"/>
<circle cx="123" cy="93" r="1" fill="#4C4F69"/>
<rect x="135.5" y="86.5" width="13" height="13" rx="0.5" fill="#EFF1F5" stroke="#4C4F69"/>
<circle cx="140.5" cy="88.5" r="0.5" fill="#4C4F69"/>
<circle cx="145.5" cy="91.5" r="0.5" fill="#4C4F69"/>
<circle cx="142" cy="93" r="1" fill="#4C4F69"/>
<rect x="0.5" y="27.5" width="150" height="74" rx="0.5" stroke="#4C4F69"/>
<rect x="96.5" y="0.5" width="54" height="27" rx="0.5" fill="#EFF1F5" stroke="#4C4F69"/>
<rect x="147.5" y="21.5" width="3" height="1" rx="0.5" fill="#EFF1F5" stroke="#4C4F69"/>
<rect x="147.5" y="5.5" width="3" height="1" rx="0.5" fill="#EFF1F5" stroke="#4C4F69"/>
<rect x="96.5" y="21.5" width="3" height="1" rx="0.5" fill="#EFF1F5" stroke="#4C4F69"/>
<rect x="96.5" y="5.5" width="3" height="1" rx="0.5" fill="#EFF1F5" stroke="#4C4F69"/>
<rect x="148.5" y="24.5" width="50" height="21" rx="0.5" transform="rotate(180 148.5 24.5)" fill="#EFF1F5" stroke="#4C4F69"/>
<rect x="148.5" y="17.5" width="4" height="7" rx="0.5" transform="rotate(180 148.5 17.5)" fill="#EFF1F5" stroke="#4C4F69"/>
<rect x="142.75" y="22.75" width="0.5" height="0.5" rx="0.25" transform="rotate(180 142.75 22.75)" fill="#4C4F69" stroke="#4C4F69" stroke-width="0.5"/>
<rect x="140.75" y="22.75" width="0.5" height="0.5" rx="0.25" transform="rotate(180 140.75 22.75)" fill="#4C4F69" stroke="#4C4F69" stroke-width="0.5"/>
<rect x="138.75" y="22.75" width="0.5" height="0.5" rx="0.25" transform="rotate(180 138.75 22.75)" fill="#4C4F69" stroke="#4C4F69" stroke-width="0.5"/>
<rect x="134.75" y="22.75" width="0.5" height="0.5" rx="0.25" transform="rotate(180 134.75 22.75)" fill="#4C4F69" stroke="#4C4F69" stroke-width="0.5"/>
<rect x="136.75" y="22.75" width="0.5" height="0.5" rx="0.25" transform="rotate(180 136.75 22.75)" fill="#4C4F69" stroke="#4C4F69" stroke-width="0.5"/>
<rect x="112.75" y="22.75" width="0.5" height="0.5" rx="0.25" transform="rotate(180 112.75 22.75)" fill="#4C4F69" stroke="#4C4F69" stroke-width="0.5"/>
<rect x="110.75" y="22.75" width="0.5" height="0.5" rx="0.25" transform="rotate(180 110.75 22.75)" fill="#4C4F69" stroke="#4C4F69" stroke-width="0.5"/>
<rect x="108.75" y="22.75" width="0.5" height="0.5" rx="0.25" transform="rotate(180 108.75 22.75)" fill="#4C4F69" stroke="#4C4F69" stroke-width="0.5"/>
<rect x="104.75" y="22.75" width="0.5" height="0.5" rx="0.25" transform="rotate(180 104.75 22.75)" fill="#4C4F69" stroke="#4C4F69" stroke-width="0.5"/>
<rect x="106.75" y="22.75" width="0.5" height="0.5" rx="0.25" transform="rotate(180 106.75 22.75)" fill="#4C4F69" stroke="#4C4F69" stroke-width="0.5"/>
<rect x="122.75" y="22.75" width="0.5" height="0.5" rx="0.25" transform="rotate(180 122.75 22.75)" fill="#4C4F69" stroke="#4C4F69" stroke-width="0.5"/>
<rect x="120.75" y="22.75" width="0.5" height="0.5" rx="0.25" transform="rotate(180 120.75 22.75)" fill="#4C4F69" stroke="#4C4F69" stroke-width="0.5"/>
<rect x="118.75" y="22.75" width="0.5" height="0.5" rx="0.25" transform="rotate(180 118.75 22.75)" fill="#4C4F69" stroke="#4C4F69" stroke-width="0.5"/>
<rect x="114.75" y="22.75" width="0.5" height="0.5" rx="0.25" transform="rotate(180 114.75 22.75)" fill="#4C4F69" stroke="#4C4F69" stroke-width="0.5"/>
<rect x="116.75" y="22.75" width="0.5" height="0.5" rx="0.25" transform="rotate(180 116.75 22.75)" fill="#4C4F69" stroke="#4C4F69" stroke-width="0.5"/>
<rect x="132.75" y="22.75" width="0.5" height="0.5" rx="0.25" transform="rotate(180 132.75 22.75)" fill="#4C4F69" stroke="#4C4F69" stroke-width="0.5"/>
<rect x="130.75" y="22.75" width="0.5" height="0.5" rx="0.25" transform="rotate(180 130.75 22.75)" fill="#4C4F69" stroke="#4C4F69" stroke-width="0.5"/>
<rect x="128.75" y="22.75" width="0.5" height="0.5" rx="0.25" transform="rotate(180 128.75 22.75)" fill="#4C4F69" stroke="#4C4F69" stroke-width="0.5"/>
<rect x="124.75" y="22.75" width="0.5" height="0.5" rx="0.25" transform="rotate(180 124.75 22.75)" fill="#4C4F69" stroke="#4C4F69" stroke-width="0.5"/>
<rect x="126.75" y="22.75" width="0.5" height="0.5" rx="0.25" transform="rotate(180 126.75 22.75)" fill="#4C4F69" stroke="#4C4F69" stroke-width="0.5"/>
<rect x="142.75" y="5.75" width="0.5" height="0.5" rx="0.25" transform="rotate(180 142.75 5.75)" fill="#4C4F69" stroke="#4C4F69" stroke-width="0.5"/>
<rect x="140.75" y="5.75" width="0.5" height="0.5" rx="0.25" transform="rotate(180 140.75 5.75)" fill="#4C4F69" stroke="#4C4F69" stroke-width="0.5"/>
<rect x="138.75" y="5.75" width="0.5" height="0.5" rx="0.25" transform="rotate(180 138.75 5.75)" fill="#4C4F69" stroke="#4C4F69" stroke-width="0.5"/>
<rect x="134.75" y="5.75" width="0.5" height="0.5" rx="0.25" transform="rotate(180 134.75 5.75)" fill="#4C4F69" stroke="#4C4F69" stroke-width="0.5"/>
<rect x="136.75" y="5.75" width="0.5" height="0.5" rx="0.25" transform="rotate(180 136.75 5.75)" fill="#4C4F69" stroke="#4C4F69" stroke-width="0.5"/>
<rect x="112.75" y="5.75" width="0.5" height="0.5" rx="0.25" transform="rotate(180 112.75 5.75)" fill="#4C4F69" stroke="#4C4F69" stroke-width="0.5"/>
<rect x="110.75" y="5.75" width="0.5" height="0.5" rx="0.25" transform="rotate(180 110.75 5.75)" fill="#4C4F69" stroke="#4C4F69" stroke-width="0.5"/>
<rect x="108.75" y="5.75" width="0.5" height="0.5" rx="0.25" transform="rotate(180 108.75 5.75)" fill="#4C4F69" stroke="#4C4F69" stroke-width="0.5"/>
<rect x="104.75" y="5.75" width="0.5" height="0.5" rx="0.25" transform="rotate(180 104.75 5.75)" fill="#4C4F69" stroke="#4C4F69" stroke-width="0.5"/>
<rect x="106.75" y="5.75" width="0.5" height="0.5" rx="0.25" transform="rotate(180 106.75 5.75)" fill="#4C4F69" stroke="#4C4F69" stroke-width="0.5"/>
<rect x="122.75" y="5.75" width="0.5" height="0.5" rx="0.25" transform="rotate(180 122.75 5.75)" fill="#4C4F69" stroke="#4C4F69" stroke-width="0.5"/>
<rect x="120.75" y="5.75" width="0.5" height="0.5" rx="0.25" transform="rotate(180 120.75 5.75)" fill="#4C4F69" stroke="#4C4F69" stroke-width="0.5"/>
<rect x="118.75" y="5.75" width="0.5" height="0.5" rx="0.25" transform="rotate(180 118.75 5.75)" fill="#4C4F69" stroke="#4C4F69" stroke-width="0.5"/>
<rect x="114.75" y="5.75" width="0.5" height="0.5" rx="0.25" transform="rotate(180 114.75 5.75)" fill="#4C4F69" stroke="#4C4F69" stroke-width="0.5"/>
<rect x="116.75" y="5.75" width="0.5" height="0.5" rx="0.25" transform="rotate(180 116.75 5.75)" fill="#4C4F69" stroke="#4C4F69" stroke-width="0.5"/>
<rect x="132.75" y="5.75" width="0.5" height="0.5" rx="0.25" transform="rotate(180 132.75 5.75)" fill="#4C4F69" stroke="#4C4F69" stroke-width="0.5"/>
<rect x="130.75" y="5.75" width="0.5" height="0.5" rx="0.25" transform="rotate(180 130.75 5.75)" fill="#4C4F69" stroke="#4C4F69" stroke-width="0.5"/>
<rect x="128.75" y="5.75" width="0.5" height="0.5" rx="0.25" transform="rotate(180 128.75 5.75)" fill="#4C4F69" stroke="#4C4F69" stroke-width="0.5"/>
<rect x="124.75" y="5.75" width="0.5" height="0.5" rx="0.25" transform="rotate(180 124.75 5.75)" fill="#4C4F69" stroke="#4C4F69" stroke-width="0.5"/>
<rect x="126.75" y="5.75" width="0.5" height="0.5" rx="0.25" transform="rotate(180 126.75 5.75)" fill="#4C4F69" stroke="#4C4F69" stroke-width="0.5"/>
<path d="M111.81 17V10.718H114.096C114.678 10.718 115.122 10.877 115.428 11.195C115.734 11.513 115.887 11.957 115.887 12.527C115.887 13.097 115.734 13.541 115.428 13.859C115.122 14.177 114.678 14.336 114.096 14.336H112.566V17H111.81ZM112.566 13.679H114.078C114.396 13.679 114.642 13.601 114.816 13.445C114.996 13.283 115.086 13.055 115.086 12.761V12.293C115.086 11.999 114.996 11.774 114.816 11.618C114.642 11.456 114.396 11.375 114.078 11.375H112.566V13.679ZM117.152 17V16.397H118.718V11.321H117.152V10.718H121.04V11.321H119.474V16.397H121.04V17H117.152ZM124.7 17.108C123.932 17.108 123.359 16.829 122.981 16.271C122.609 15.713 122.423 14.909 122.423 13.859C122.423 12.809 122.609 12.005 122.981 11.447C123.359 10.889 123.932 10.61 124.7 10.61C124.988 10.61 125.237 10.649 125.447 10.727C125.657 10.805 125.837 10.91 125.987 11.042C126.137 11.174 126.263 11.324 126.365 11.492C126.467 11.654 126.557 11.819 126.635 11.987L125.987 12.284C125.933 12.146 125.87 12.017 125.798 11.897C125.726 11.771 125.639 11.663 125.537 11.573C125.441 11.477 125.324 11.402 125.186 11.348C125.054 11.294 124.892 11.267 124.7 11.267C124.202 11.267 123.83 11.456 123.584 11.834C123.344 12.212 123.224 12.716 123.224 13.346V14.372C123.224 15.002 123.344 15.506 123.584 15.884C123.83 16.262 124.202 16.451 124.7 16.451C124.892 16.451 125.054 16.424 125.186 16.37C125.324 16.316 125.441 16.244 125.537 16.154C125.639 16.058 125.726 15.95 125.798 15.83C125.87 15.704 125.933 15.572 125.987 15.434L126.635 15.731C126.557 15.905 126.467 16.073 126.365 16.235C126.263 16.397 126.137 16.544 125.987 16.676C125.837 16.808 125.657 16.913 125.447 16.991C125.237 17.069 124.988 17.108 124.7 17.108ZM129.889 17.108C129.505 17.108 129.175 17.036 128.899 16.892C128.623 16.742 128.395 16.529 128.215 16.253C128.035 15.977 127.903 15.638 127.819 15.236C127.735 14.834 127.693 14.375 127.693 13.859C127.693 13.349 127.735 12.893 127.819 12.491C127.903 12.083 128.035 11.741 128.215 11.465C128.395 11.189 128.623 10.979 128.899 10.835C129.175 10.685 129.505 10.61 129.889 10.61C130.273 10.61 130.603 10.685 130.879 10.835C131.155 10.979 131.383 11.189 131.563 11.465C131.743 11.741 131.875 12.083 131.959 12.491C132.043 12.893 132.085 13.349 132.085 13.859C132.085 14.375 132.043 14.834 131.959 15.236C131.875 15.638 131.743 15.977 131.563 16.253C131.383 16.529 131.155 16.742 130.879 16.892C130.603 17.036 130.273 17.108 129.889 17.108ZM129.889 16.451C130.141 16.451 130.354 16.403 130.528 16.307C130.702 16.205 130.846 16.064 130.96 15.884C131.074 15.704 131.155 15.488 131.203 15.236C131.257 14.978 131.284 14.69 131.284 14.372V13.346C131.284 13.034 131.257 12.749 131.203 12.491C131.155 12.233 131.074 12.014 130.96 11.834C130.846 11.654 130.702 11.516 130.528 11.42C130.354 11.318 130.141 11.267 129.889 11.267C129.637 11.267 129.424 11.318 129.25 11.42C129.076 11.516 128.932 11.654 128.818 11.834C128.704 12.014 128.62 12.233 128.566 12.491C128.518 12.749 128.494 13.034 128.494 13.346V14.372C128.494 14.69 128.518 14.978 128.566 15.236C128.62 15.488 128.704 15.704 128.818 15.884C128.932 16.064 129.076 16.205 129.25 16.307C129.424 16.403 129.637 16.451 129.889 16.451Z" fill="#4C4F69"/>
</svg>
