<svg width="151" height="102" viewBox="0 0 151 102" fill="none" xmlns="http://www.w3.org/2000/svg">
<rect x="0.5" y="27.5" width="150" height="74" rx="0.5" fill="#EFF1F5" stroke="#4C4F69"/>
<rect x="2.5" y="29.5" width="13" height="13" rx="0.5" fill="#EFF1F5" stroke="#4C4F69"/>
<rect x="0.5" y="0.5" width="54" height="27" rx="0.5" fill="#EFF1F5" stroke="#4C4F69"/>
<rect x="2.5" y="48.5" width="13" height="13" rx="0.5" fill="#EFF1F5" stroke="#4C4F69"/>
<rect x="2.5" y="67.5" width="13" height="13" rx="0.5" fill="#EFF1F5" stroke="#4C4F69"/>
<rect x="2.5" y="86.5" width="13" height="13" rx="0.5" fill="#EFF1F5" stroke="#4C4F69"/>
<rect x="21.5" y="29.5" width="13" height="13" rx="0.5" fill="#EFF1F5" stroke="#4C4F69"/>
<rect x="21.5" y="48.5" width="13" height="13" rx="0.5" fill="#EFF1F5" stroke="#4C4F69"/>
<rect x="21.5" y="67.5" width="13" height="13" rx="0.5" fill="#EFF1F5" stroke="#4C4F69"/>
<rect x="21.5" y="86.5" width="13" height="13" rx="0.5" fill="#EFF1F5" stroke="#4C4F69"/>
<rect x="40.5" y="29.5" width="13" height="13" rx="0.5" fill="#EFF1F5" stroke="#4C4F69"/>
<rect x="51.5" y="21.5" width="3" height="1" rx="0.5" fill="#EFF1F5" stroke="#4C4F69"/>
<rect x="51.5" y="5.5" width="3" height="1" rx="0.5" fill="#EFF1F5" stroke="#4C4F69"/>
<rect x="0.5" y="21.5" width="3" height="1" rx="0.5" fill="#EFF1F5" stroke="#4C4F69"/>
<rect x="0.5" y="5.5" width="3" height="1" rx="0.5" fill="#EFF1F5" stroke="#4C4F69"/>
<rect x="40.5" y="48.5" width="13" height="13" rx="0.5" fill="#EFF1F5" stroke="#4C4F69"/>
<rect x="40.5" y="67.5" width="13" height="13" rx="0.5" fill="#EFF1F5" stroke="#4C4F69"/>
<rect x="40.5" y="86.5" width="13" height="13" rx="0.5" fill="#EFF1F5" stroke="#4C4F69"/>
<rect x="59.5" y="29.5" width="13" height="13" rx="0.5" fill="#EFF1F5" stroke="#4C4F69"/>
<rect x="59.5" y="48.5" width="13" height="13" rx="0.5" fill="#EFF1F5" stroke="#4C4F69"/>
<rect x="59.5" y="67.5" width="13" height="13" rx="0.5" fill="#EFF1F5" stroke="#4C4F69"/>
<rect x="59.5" y="86.5" width="13" height="13" rx="0.5" fill="#EFF1F5" stroke="#4C4F69"/>
<rect x="78.5" y="29.5" width="13" height="13" rx="0.5" fill="#EFF1F5" stroke="#4C4F69"/>
<rect x="78.5" y="48.5" width="13" height="13" rx="0.5" fill="#EFF1F5" stroke="#4C4F69"/>
<rect x="78.5" y="67.5" width="13" height="13" rx="0.5" fill="#EFF1F5" stroke="#4C4F69"/>
<rect x="78.5" y="86.5" width="13" height="13" rx="0.5" fill="#EFF1F5" stroke="#4C4F69"/>
<rect x="97.5" y="29.5" width="13" height="13" rx="0.5" fill="#EFF1F5" stroke="#4C4F69"/>
<rect x="97.5" y="48.5" width="13" height="13" rx="0.5" fill="#EFF1F5" stroke="#4C4F69"/>
<rect x="97.5" y="67.5" width="13" height="13" rx="0.5" fill="#EFF1F5" stroke="#4C4F69"/>
<rect x="97.5" y="86.5" width="13" height="13" rx="0.5" fill="#EFF1F5" stroke="#4C4F69"/>
<rect x="116.5" y="29.5" width="13" height="13" rx="0.5" fill="#EFF1F5" stroke="#4C4F69"/>
<rect x="116.5" y="48.5" width="13" height="13" rx="0.5" fill="#EFF1F5" stroke="#4C4F69"/>
<rect x="116.5" y="67.5" width="13" height="13" rx="0.5" fill="#EFF1F5" stroke="#4C4F69"/>
<rect x="116.5" y="86.5" width="13" height="13" rx="0.5" fill="#EFF1F5" stroke="#4C4F69"/>
<rect x="135.5" y="29.5" width="13" height="13" rx="0.5" fill="#EFF1F5" stroke="#4C4F69"/>
<rect x="135.5" y="48.5" width="13" height="13" rx="0.5" fill="#EFF1F5" stroke="#4C4F69"/>
<rect x="135.5" y="67.5" width="13" height="13" rx="0.5" fill="#EFF1F5" stroke="#4C4F69"/>
<rect x="135.5" y="86.5" width="13" height="13" rx="0.5" fill="#EFF1F5" stroke="#4C4F69"/>
</svg>
